<?xml version="1.0" encoding="utf-8"?>
<!-- Generator: Adobe Illustrator 23.0.1, SVG Export Plug-In . SVG Version: 6.00 Build 0)  -->
<svg version="1.1" xmlns="http://www.w3.org/2000/svg" xmlns:xlink="http://www.w3.org/1999/xlink" x="0px" y="0px"
	 viewBox="0 0 900 900" style="enable-background:new 0 0 900 900;" xml:space="preserve">
<style type="text/css">
	.st0{fill-rule:evenodd;clip-rule:evenodd;fill:url(#SVGID_1_);}
</style>
<g id="Capa_1">
</g>
<g id="Capa_2">
	<g>
		<linearGradient id="SVGID_1_" gradientUnits="userSpaceOnUse" x1="114.1821" y1="450" x2="785.8179" y2="450">
			<stop  offset="0" style="stop-color:#DD9245"/>
			<stop  offset="0.3359" style="stop-color:#DC8F46"/>
			<stop  offset="0.8104" style="stop-color:#C86647"/>
			<stop  offset="1" style="stop-color:#B52345"/>
		</linearGradient>
		<path class="st0" d="M444.51,786.67C384.04,832,319.13,866.78,239.75,857.1c-28.49-3.46-57.91-13.73-82.73-27.67
			c-36.59-20.56-48.3-55.57-40.57-95.22c8.12-41.65,33.01-74.36,73.54-88.85c33.69-12.04,71.46-13.64,106.47-19.71
			c-98.55-179.94-39.54-294.29,77.2-355.08c-43.09-32.3-65.57-73.49-58.22-125.66c4.4-31.26,17.98-58.34,45-78.57
			c56.43-42.22,134.88-37.86,179.42,10.6c51.7,56.26,44.79,132.12-19.65,191.93c14.01,8.57,27.72,16.54,40.98,25.13
			c72.06,46.71,109.53,134.62,84.48,209c-16.9,50.17-63.97,79.62-121.91,76.45c-48.78-2.67-96.26-43.78-105.11-91.18
			c-3.77-20.22-1.3-40.24,22.25-45.74c23.81-5.56,34.18,9.95,39.83,31.19c9.32,35.14,30.07,48.63,62.25,44.18
			c28.37-3.92,45.32-24.96,46.54-57.75c2.7-72.87-65.37-142.15-140.39-142.89c-73.57-0.72-139.23,63.02-140.49,135.66
			c-1.06,60.77,20.46,114.29,57.54,162.32c25.53,33.08,53.29,64.59,80.91,97.82c49.35-38.96,96.94-70.34,156.04-79.8
			c58.82-9.42,110.81,3.94,152.63,46.06c52.08,52.47,33.97,131.67-34.98,162.17c-82.3,36.4-158.18,23.7-230.79-22.86
			C475.42,809.28,461.66,798.78,444.51,786.67z M401.76,745.08c-42.96-44.48-96.14-57.73-152.82-59.76
			c-36.19-1.29-75.37,34.47-76.8,65.38c-1.25,26.99,24.06,46.28,68.04,51.58c7.15,0.87,14.45,1.26,21.64,0.97
			C315.07,801.17,357.12,774.55,401.76,745.08z M496.88,749.94c15.77,11.34,27.16,22.05,40.71,28.81
			c50.76,25.31,103.77,35.01,157.88,10.58c33.03-14.91,38.74-44.88,14.07-70.56c-23.52-24.48-53.69-39.27-88.89-32.43
			C574.48,695.3,533.59,715.9,496.88,749.94z M443.08,228.91c38.69,0.7,71.18-27.32,72.32-62.39c0.95-29.21-39.95-74.01-67.54-73.98
			c-39.28,0.05-74.42,34.44-74.51,72.95C373.27,196.62,408.08,228.28,443.08,228.91z"/>
	</g>
</g>
</svg>
